<mxfile host="www.draw.io" modified="2023-05-31T06:16:41.237Z" agent="Mozilla/5.0 (Windows NT 10.0; Win64; x64) AppleWebKit/537.36 (KHTML, like Gecko) Chrome/113.0.0.0 Safari/537.36" etag="OEz06ZLkNg_4BTeIT6sx" version="21.3.6" type="device">
  <diagram name="Halaman-1" id="xUm3r-RQoFt7d6ZgQ5e-">
    <mxGraphModel dx="1400" dy="721" grid="1" gridSize="10" guides="1" tooltips="1" connect="1" arrows="1" fold="1" page="1" pageScale="1" pageWidth="827" pageHeight="1169" math="0" shadow="0">
      <root>
        <mxCell id="0" />
        <mxCell id="1" parent="0" />
        <mxCell id="2oaauY4jD-IXjIgZxX1O-15" style="edgeStyle=orthogonalEdgeStyle;rounded=0;orthogonalLoop=1;jettySize=auto;html=1;entryX=0.5;entryY=0;entryDx=0;entryDy=0;" edge="1" parent="1" source="2oaauY4jD-IXjIgZxX1O-1" target="2oaauY4jD-IXjIgZxX1O-2">
          <mxGeometry relative="1" as="geometry" />
        </mxCell>
        <mxCell id="2oaauY4jD-IXjIgZxX1O-1" value="Cari sample suara Karakter" style="rounded=1;whiteSpace=wrap;html=1;" vertex="1" parent="1">
          <mxGeometry x="120" y="40" width="120" height="60" as="geometry" />
        </mxCell>
        <mxCell id="2oaauY4jD-IXjIgZxX1O-16" style="edgeStyle=orthogonalEdgeStyle;rounded=0;orthogonalLoop=1;jettySize=auto;html=1;exitX=0.5;exitY=1;exitDx=0;exitDy=0;" edge="1" parent="1" source="2oaauY4jD-IXjIgZxX1O-2" target="2oaauY4jD-IXjIgZxX1O-4">
          <mxGeometry relative="1" as="geometry" />
        </mxCell>
        <mxCell id="2oaauY4jD-IXjIgZxX1O-2" value="Hilangkan Noice" style="rounded=1;whiteSpace=wrap;html=1;" vertex="1" parent="1">
          <mxGeometry x="120" y="150" width="120" height="60" as="geometry" />
        </mxCell>
        <mxCell id="2oaauY4jD-IXjIgZxX1O-36" style="edgeStyle=orthogonalEdgeStyle;rounded=0;orthogonalLoop=1;jettySize=auto;html=1;exitX=0.5;exitY=1;exitDx=0;exitDy=0;" edge="1" parent="1" source="2oaauY4jD-IXjIgZxX1O-3" target="2oaauY4jD-IXjIgZxX1O-33">
          <mxGeometry relative="1" as="geometry" />
        </mxCell>
        <mxCell id="2oaauY4jD-IXjIgZxX1O-3" value="Train model" style="rounded=1;whiteSpace=wrap;html=1;" vertex="1" parent="1">
          <mxGeometry x="120" y="370" width="120" height="60" as="geometry" />
        </mxCell>
        <mxCell id="2oaauY4jD-IXjIgZxX1O-17" style="edgeStyle=orthogonalEdgeStyle;rounded=0;orthogonalLoop=1;jettySize=auto;html=1;exitX=0.5;exitY=1;exitDx=0;exitDy=0;" edge="1" parent="1" source="2oaauY4jD-IXjIgZxX1O-4" target="2oaauY4jD-IXjIgZxX1O-3">
          <mxGeometry relative="1" as="geometry" />
        </mxCell>
        <mxCell id="2oaauY4jD-IXjIgZxX1O-4" value="Split menjadi beberapa potong" style="rounded=1;whiteSpace=wrap;html=1;" vertex="1" parent="1">
          <mxGeometry x="120" y="260" width="120" height="60" as="geometry" />
        </mxCell>
        <mxCell id="2oaauY4jD-IXjIgZxX1O-21" style="edgeStyle=orthogonalEdgeStyle;rounded=0;orthogonalLoop=1;jettySize=auto;html=1;exitX=0.25;exitY=1;exitDx=0;exitDy=0;" edge="1" parent="1" source="2oaauY4jD-IXjIgZxX1O-9" target="2oaauY4jD-IXjIgZxX1O-10">
          <mxGeometry relative="1" as="geometry" />
        </mxCell>
        <mxCell id="2oaauY4jD-IXjIgZxX1O-22" style="edgeStyle=orthogonalEdgeStyle;rounded=0;orthogonalLoop=1;jettySize=auto;html=1;exitX=0.75;exitY=1;exitDx=0;exitDy=0;entryX=0.5;entryY=0;entryDx=0;entryDy=0;" edge="1" parent="1" source="2oaauY4jD-IXjIgZxX1O-9" target="2oaauY4jD-IXjIgZxX1O-11">
          <mxGeometry relative="1" as="geometry" />
        </mxCell>
        <mxCell id="2oaauY4jD-IXjIgZxX1O-9" value="Bagi bagi menjadi Suara dan Musik" style="rounded=1;whiteSpace=wrap;html=1;" vertex="1" parent="1">
          <mxGeometry x="560" y="210" width="120" height="60" as="geometry" />
        </mxCell>
        <mxCell id="2oaauY4jD-IXjIgZxX1O-23" style="edgeStyle=orthogonalEdgeStyle;rounded=0;orthogonalLoop=1;jettySize=auto;html=1;exitX=0.5;exitY=1;exitDx=0;exitDy=0;entryX=1;entryY=0.5;entryDx=0;entryDy=0;" edge="1" parent="1" source="2oaauY4jD-IXjIgZxX1O-10" target="2oaauY4jD-IXjIgZxX1O-14">
          <mxGeometry relative="1" as="geometry" />
        </mxCell>
        <mxCell id="2oaauY4jD-IXjIgZxX1O-10" value="Suara" style="rounded=1;whiteSpace=wrap;html=1;" vertex="1" parent="1">
          <mxGeometry x="440" y="380" width="120" height="60" as="geometry" />
        </mxCell>
        <mxCell id="2oaauY4jD-IXjIgZxX1O-28" style="edgeStyle=orthogonalEdgeStyle;rounded=0;orthogonalLoop=1;jettySize=auto;html=1;exitX=0.5;exitY=1;exitDx=0;exitDy=0;entryX=1;entryY=0.5;entryDx=0;entryDy=0;" edge="1" parent="1" source="2oaauY4jD-IXjIgZxX1O-11" target="2oaauY4jD-IXjIgZxX1O-25">
          <mxGeometry relative="1" as="geometry" />
        </mxCell>
        <mxCell id="2oaauY4jD-IXjIgZxX1O-11" value="Musik" style="rounded=1;whiteSpace=wrap;html=1;" vertex="1" parent="1">
          <mxGeometry x="670" y="380" width="120" height="60" as="geometry" />
        </mxCell>
        <mxCell id="2oaauY4jD-IXjIgZxX1O-19" style="edgeStyle=orthogonalEdgeStyle;rounded=0;orthogonalLoop=1;jettySize=auto;html=1;exitX=0.5;exitY=1;exitDx=0;exitDy=0;entryX=0.5;entryY=0;entryDx=0;entryDy=0;" edge="1" parent="1" source="2oaauY4jD-IXjIgZxX1O-12" target="2oaauY4jD-IXjIgZxX1O-9">
          <mxGeometry relative="1" as="geometry" />
        </mxCell>
        <mxCell id="2oaauY4jD-IXjIgZxX1O-12" value="Lari Lagu" style="rounded=1;whiteSpace=wrap;html=1;" vertex="1" parent="1">
          <mxGeometry x="560" y="40" width="120" height="60" as="geometry" />
        </mxCell>
        <mxCell id="2oaauY4jD-IXjIgZxX1O-26" style="edgeStyle=orthogonalEdgeStyle;rounded=0;orthogonalLoop=1;jettySize=auto;html=1;exitX=0.5;exitY=1;exitDx=0;exitDy=0;" edge="1" parent="1" source="2oaauY4jD-IXjIgZxX1O-14" target="2oaauY4jD-IXjIgZxX1O-24">
          <mxGeometry relative="1" as="geometry" />
        </mxCell>
        <mxCell id="2oaauY4jD-IXjIgZxX1O-14" value="Ayaka" style="rounded=1;whiteSpace=wrap;html=1;" vertex="1" parent="1">
          <mxGeometry x="120" y="590" width="120" height="60" as="geometry" />
        </mxCell>
        <mxCell id="2oaauY4jD-IXjIgZxX1O-27" style="edgeStyle=orthogonalEdgeStyle;rounded=0;orthogonalLoop=1;jettySize=auto;html=1;exitX=0.5;exitY=1;exitDx=0;exitDy=0;entryX=0.5;entryY=0;entryDx=0;entryDy=0;" edge="1" parent="1" source="2oaauY4jD-IXjIgZxX1O-24" target="2oaauY4jD-IXjIgZxX1O-25">
          <mxGeometry relative="1" as="geometry" />
        </mxCell>
        <mxCell id="2oaauY4jD-IXjIgZxX1O-24" value="Ayaka Nyanyi" style="rounded=1;whiteSpace=wrap;html=1;" vertex="1" parent="1">
          <mxGeometry x="120" y="710" width="120" height="60" as="geometry" />
        </mxCell>
        <mxCell id="2oaauY4jD-IXjIgZxX1O-30" style="edgeStyle=orthogonalEdgeStyle;rounded=0;orthogonalLoop=1;jettySize=auto;html=1;exitX=0.5;exitY=1;exitDx=0;exitDy=0;" edge="1" parent="1" source="2oaauY4jD-IXjIgZxX1O-25" target="2oaauY4jD-IXjIgZxX1O-29">
          <mxGeometry relative="1" as="geometry" />
        </mxCell>
        <mxCell id="2oaauY4jD-IXjIgZxX1O-25" value="Mix" style="rounded=1;whiteSpace=wrap;html=1;" vertex="1" parent="1">
          <mxGeometry x="120" y="840" width="120" height="60" as="geometry" />
        </mxCell>
        <mxCell id="2oaauY4jD-IXjIgZxX1O-29" value="Download wav" style="rounded=1;whiteSpace=wrap;html=1;" vertex="1" parent="1">
          <mxGeometry x="120" y="960" width="120" height="60" as="geometry" />
        </mxCell>
        <mxCell id="2oaauY4jD-IXjIgZxX1O-37" style="edgeStyle=orthogonalEdgeStyle;rounded=0;orthogonalLoop=1;jettySize=auto;html=1;exitX=0.5;exitY=1;exitDx=0;exitDy=0;entryX=0.5;entryY=0;entryDx=0;entryDy=0;" edge="1" parent="1" source="2oaauY4jD-IXjIgZxX1O-33" target="2oaauY4jD-IXjIgZxX1O-14">
          <mxGeometry relative="1" as="geometry" />
        </mxCell>
        <mxCell id="2oaauY4jD-IXjIgZxX1O-38" style="edgeStyle=orthogonalEdgeStyle;rounded=0;orthogonalLoop=1;jettySize=auto;html=1;exitX=1;exitY=0.5;exitDx=0;exitDy=0;entryX=1;entryY=0.5;entryDx=0;entryDy=0;" edge="1" parent="1" source="2oaauY4jD-IXjIgZxX1O-33" target="2oaauY4jD-IXjIgZxX1O-3">
          <mxGeometry relative="1" as="geometry">
            <Array as="points">
              <mxPoint x="320" y="510" />
              <mxPoint x="320" y="400" />
            </Array>
          </mxGeometry>
        </mxCell>
        <mxCell id="2oaauY4jD-IXjIgZxX1O-33" value="atur amlitudo" style="rhombus;whiteSpace=wrap;html=1;" vertex="1" parent="1">
          <mxGeometry x="140" y="470" width="80" height="80" as="geometry" />
        </mxCell>
      </root>
    </mxGraphModel>
  </diagram>
</mxfile>
